<?xml version="1.0" encoding="UTF-8" standalone="no"?>
<!DOCTYPE svg PUBLIC "-//W3C//DTD SVG 1.1//EN"
 "http://www.w3.org/Graphics/SVG/1.1/DTD/svg11.dtd">
<!-- Generated by graphviz version 2.47.0 (20210316.0004)
 -->
<!-- Title: dbml Pages: 1 -->
<svg width="1900pt" height="1310pt"
 viewBox="0.00 0.00 1900.09 1310.05" xmlns="http://www.w3.org/2000/svg" xmlns:xlink="http://www.w3.org/1999/xlink">
<g id="graph0" class="graph" transform="scale(1 1) rotate(0) translate(4 1306.05)">
<title>dbml</title>
<!-- customers -->
<g id="customers" class="node">
<title>customers</title>
<ellipse fill="none" stroke="black" stroke-width="0" cx="1592.99" cy="-908.39" rx="299.21" ry="257.27"/>
<polygon fill="#1d71b8" stroke="transparent" points="1383.99,-1028.39 1383.99,-1088.39 1802.99,-1088.39 1802.99,-1028.39 1383.99,-1028.39"/>
<polygon fill="none" stroke="#29235c" points="1383.99,-1028.39 1383.99,-1088.39 1802.99,-1088.39 1802.99,-1028.39 1383.99,-1028.39"/>
<text text-anchor="start" x="1457.45" y="-1049.59" font-family="Helvetica,sans-Serif" font-weight="bold" font-size="32.00" fill="#ffffff"> &#160;&#160;&#160;&#160;&#160;&#160;customers &#160;&#160;&#160;&#160;&#160;&#160;</text>
<polygon fill="#e7e2dd" stroke="transparent" points="1383.99,-968.39 1383.99,-1028.39 1802.99,-1028.39 1802.99,-968.39 1383.99,-968.39"/>
<polygon fill="none" stroke="#29235c" points="1383.99,-968.39 1383.99,-1028.39 1802.99,-1028.39 1802.99,-968.39 1383.99,-968.39"/>
<text text-anchor="start" x="1394.99" y="-989.59" font-family="Helvetica,sans-Serif" font-weight="bold" font-size="32.00" fill="#29235c">id</text>
<text text-anchor="start" x="1419.88" y="-989.59" font-family="Helvetica,sans-Serif" font-size="32.00" fill="#29235c"> &#160;&#160;&#160;</text>
<text text-anchor="start" x="1731.52" y="-989.59" font-family="Helvetica,sans-Serif" font-style="italic" font-size="32.00" fill="#29235c">uuid</text>
<polygon fill="#e7e2dd" stroke="transparent" points="1383.99,-908.39 1383.99,-968.39 1802.99,-968.39 1802.99,-908.39 1383.99,-908.39"/>
<polygon fill="none" stroke="#29235c" points="1383.99,-908.39 1383.99,-968.39 1802.99,-968.39 1802.99,-908.39 1383.99,-908.39"/>
<text text-anchor="start" x="1394.99" y="-928.59" font-family="Helvetica,sans-Serif" font-size="32.00" fill="#29235c">name &#160;&#160;&#160;</text>
<text text-anchor="start" x="1646.22" y="-929.59" font-family="Helvetica,sans-Serif" font-style="italic" font-size="32.00" fill="#29235c">varchar</text>
<text text-anchor="start" x="1752.9" y="-929.59" font-family="Helvetica,sans-Serif" font-size="32.00" fill="#29235c"> </text>
<text text-anchor="start" x="1761.79" y="-929.59" font-family="Helvetica,sans-Serif" font-weight="bold" font-size="32.00" fill="#29235c">(!)</text>
<polygon fill="#e7e2dd" stroke="transparent" points="1383.99,-848.39 1383.99,-908.39 1802.99,-908.39 1802.99,-848.39 1383.99,-848.39"/>
<polygon fill="none" stroke="#29235c" points="1383.99,-848.39 1383.99,-908.39 1802.99,-908.39 1802.99,-848.39 1383.99,-848.39"/>
<text text-anchor="start" x="1394.99" y="-868.59" font-family="Helvetica,sans-Serif" font-size="32.00" fill="#29235c">size &#160;&#160;&#160;</text>
<text text-anchor="start" x="1589.34" y="-869.59" font-family="Helvetica,sans-Serif" font-style="italic" font-size="32.00" fill="#29235c">varchar(20)</text>
<text text-anchor="start" x="1752.9" y="-869.59" font-family="Helvetica,sans-Serif" font-size="32.00" fill="#29235c"> </text>
<text text-anchor="start" x="1761.79" y="-869.59" font-family="Helvetica,sans-Serif" font-weight="bold" font-size="32.00" fill="#29235c">(!)</text>
<polygon fill="#e7e2dd" stroke="transparent" points="1383.99,-788.39 1383.99,-848.39 1802.99,-848.39 1802.99,-788.39 1383.99,-788.39"/>
<polygon fill="none" stroke="#29235c" points="1383.99,-788.39 1383.99,-848.39 1802.99,-848.39 1802.99,-788.39 1383.99,-788.39"/>
<text text-anchor="start" x="1394.99" y="-808.59" font-family="Helvetica,sans-Serif" font-size="32.00" fill="#29235c">mrr &#160;&#160;&#160;</text>
<text text-anchor="start" x="1555.56" y="-809.59" font-family="Helvetica,sans-Serif" font-style="italic" font-size="32.00" fill="#29235c">numeric(12,2)</text>
<text text-anchor="start" x="1752.9" y="-809.59" font-family="Helvetica,sans-Serif" font-size="32.00" fill="#29235c"> </text>
<text text-anchor="start" x="1761.79" y="-809.59" font-family="Helvetica,sans-Serif" font-weight="bold" font-size="32.00" fill="#29235c">(!)</text>
<polygon fill="#e7e2dd" stroke="transparent" points="1383.99,-728.39 1383.99,-788.39 1802.99,-788.39 1802.99,-728.39 1383.99,-728.39"/>
<polygon fill="none" stroke="#29235c" points="1383.99,-728.39 1383.99,-788.39 1802.99,-788.39 1802.99,-728.39 1383.99,-728.39"/>
<text text-anchor="start" x="1394.62" y="-748.59" font-family="Helvetica,sans-Serif" font-size="32.00" fill="#29235c">created_at &#160;&#160;&#160;</text>
<text text-anchor="start" x="1580.72" y="-749.59" font-family="Helvetica,sans-Serif" font-style="italic" font-size="32.00" fill="#29235c">timestamptz</text>
<text text-anchor="start" x="1753.17" y="-749.59" font-family="Helvetica,sans-Serif" font-size="32.00" fill="#29235c"> </text>
<text text-anchor="start" x="1762.06" y="-749.59" font-family="Helvetica,sans-Serif" font-weight="bold" font-size="32.00" fill="#29235c">(!)</text>
<polygon fill="none" stroke="#29235c" stroke-width="2" points="1382.49,-727.39 1382.49,-1089.39 1803.49,-1089.39 1803.49,-727.39 1382.49,-727.39"/>
</g>
<!-- invoices -->
<g id="invoices" class="node">
<title>invoices</title>
<ellipse fill="none" stroke="black" stroke-width="0" cx="958.77" cy="-749.39" rx="299.21" ry="342.48"/>
<polygon fill="#1d71b8" stroke="transparent" points="749.77,-929.39 749.77,-989.39 1168.77,-989.39 1168.77,-929.39 749.77,-929.39"/>
<polygon fill="none" stroke="#29235c" points="749.77,-929.39 749.77,-989.39 1168.77,-989.39 1168.77,-929.39 749.77,-929.39"/>
<text text-anchor="start" x="839.24" y="-950.59" font-family="Helvetica,sans-Serif" font-weight="bold" font-size="32.00" fill="#ffffff"> &#160;&#160;&#160;&#160;&#160;&#160;invoices &#160;&#160;&#160;&#160;&#160;&#160;</text>
<polygon fill="#e7e2dd" stroke="transparent" points="749.77,-869.39 749.77,-929.39 1168.77,-929.39 1168.77,-869.39 749.77,-869.39"/>
<polygon fill="none" stroke="#29235c" points="749.77,-869.39 749.77,-929.39 1168.77,-929.39 1168.77,-869.39 749.77,-869.39"/>
<text text-anchor="start" x="760.77" y="-890.59" font-family="Helvetica,sans-Serif" font-weight="bold" font-size="32.00" fill="#29235c">id</text>
<text text-anchor="start" x="785.66" y="-890.59" font-family="Helvetica,sans-Serif" font-size="32.00" fill="#29235c"> &#160;&#160;&#160;</text>
<text text-anchor="start" x="1097.31" y="-890.59" font-family="Helvetica,sans-Serif" font-style="italic" font-size="32.00" fill="#29235c">uuid</text>
<polygon fill="#e7e2dd" stroke="transparent" points="749.77,-809.39 749.77,-869.39 1168.77,-869.39 1168.77,-809.39 749.77,-809.39"/>
<polygon fill="none" stroke="#29235c" points="749.77,-809.39 749.77,-869.39 1168.77,-869.39 1168.77,-809.39 749.77,-809.39"/>
<text text-anchor="start" x="760.77" y="-829.59" font-family="Helvetica,sans-Serif" font-size="32.00" fill="#29235c">customer_id &#160;&#160;&#160;</text>
<text text-anchor="start" x="1058.22" y="-830.59" font-family="Helvetica,sans-Serif" font-style="italic" font-size="32.00" fill="#29235c">uuid</text>
<text text-anchor="start" x="1118.68" y="-830.59" font-family="Helvetica,sans-Serif" font-size="32.00" fill="#29235c"> </text>
<text text-anchor="start" x="1127.58" y="-830.59" font-family="Helvetica,sans-Serif" font-weight="bold" font-size="32.00" fill="#29235c">(!)</text>
<polygon fill="#e7e2dd" stroke="transparent" points="749.77,-749.39 749.77,-809.39 1168.77,-809.39 1168.77,-749.39 749.77,-749.39"/>
<polygon fill="none" stroke="#29235c" points="749.77,-749.39 749.77,-809.39 1168.77,-809.39 1168.77,-749.39 749.77,-749.39"/>
<text text-anchor="start" x="760.77" y="-769.59" font-family="Helvetica,sans-Serif" font-size="32.00" fill="#29235c">amount &#160;&#160;&#160;</text>
<text text-anchor="start" x="921.35" y="-770.59" font-family="Helvetica,sans-Serif" font-style="italic" font-size="32.00" fill="#29235c">numeric(12,2)</text>
<text text-anchor="start" x="1118.68" y="-770.59" font-family="Helvetica,sans-Serif" font-size="32.00" fill="#29235c"> </text>
<text text-anchor="start" x="1127.58" y="-770.59" font-family="Helvetica,sans-Serif" font-weight="bold" font-size="32.00" fill="#29235c">(!)</text>
<polygon fill="#e7e2dd" stroke="transparent" points="749.77,-689.39 749.77,-749.39 1168.77,-749.39 1168.77,-689.39 749.77,-689.39"/>
<polygon fill="none" stroke="#29235c" points="749.77,-689.39 749.77,-749.39 1168.77,-749.39 1168.77,-689.39 749.77,-689.39"/>
<text text-anchor="start" x="760.77" y="-709.59" font-family="Helvetica,sans-Serif" font-size="32.00" fill="#29235c">issued_date &#160;&#160;&#160;</text>
<text text-anchor="start" x="1056.42" y="-710.59" font-family="Helvetica,sans-Serif" font-style="italic" font-size="32.00" fill="#29235c">date</text>
<text text-anchor="start" x="1118.68" y="-710.59" font-family="Helvetica,sans-Serif" font-size="32.00" fill="#29235c"> </text>
<text text-anchor="start" x="1127.58" y="-710.59" font-family="Helvetica,sans-Serif" font-weight="bold" font-size="32.00" fill="#29235c">(!)</text>
<polygon fill="#e7e2dd" stroke="transparent" points="749.77,-629.39 749.77,-689.39 1168.77,-689.39 1168.77,-629.39 749.77,-629.39"/>
<polygon fill="none" stroke="#29235c" points="749.77,-629.39 749.77,-689.39 1168.77,-689.39 1168.77,-629.39 749.77,-629.39"/>
<text text-anchor="start" x="760.77" y="-649.59" font-family="Helvetica,sans-Serif" font-size="32.00" fill="#29235c">due_date &#160;&#160;&#160;</text>
<text text-anchor="start" x="1056.42" y="-650.59" font-family="Helvetica,sans-Serif" font-style="italic" font-size="32.00" fill="#29235c">date</text>
<text text-anchor="start" x="1118.68" y="-650.59" font-family="Helvetica,sans-Serif" font-size="32.00" fill="#29235c"> </text>
<text text-anchor="start" x="1127.58" y="-650.59" font-family="Helvetica,sans-Serif" font-weight="bold" font-size="32.00" fill="#29235c">(!)</text>
<polygon fill="#e7e2dd" stroke="transparent" points="749.77,-569.39 749.77,-629.39 1168.77,-629.39 1168.77,-569.39 749.77,-569.39"/>
<polygon fill="none" stroke="#29235c" points="749.77,-569.39 749.77,-629.39 1168.77,-629.39 1168.77,-569.39 749.77,-569.39"/>
<text text-anchor="start" x="760.77" y="-589.59" font-family="Helvetica,sans-Serif" font-size="32.00" fill="#29235c">status &#160;&#160;&#160;</text>
<text text-anchor="start" x="955.13" y="-590.59" font-family="Helvetica,sans-Serif" font-style="italic" font-size="32.00" fill="#29235c">varchar(20)</text>
<text text-anchor="start" x="1118.68" y="-590.59" font-family="Helvetica,sans-Serif" font-size="32.00" fill="#29235c"> </text>
<text text-anchor="start" x="1127.58" y="-590.59" font-family="Helvetica,sans-Serif" font-weight="bold" font-size="32.00" fill="#29235c">(!)</text>
<polygon fill="#e7e2dd" stroke="transparent" points="749.77,-509.39 749.77,-569.39 1168.77,-569.39 1168.77,-509.39 749.77,-509.39"/>
<polygon fill="none" stroke="#29235c" points="749.77,-509.39 749.77,-569.39 1168.77,-569.39 1168.77,-509.39 749.77,-509.39"/>
<text text-anchor="start" x="760.4" y="-529.59" font-family="Helvetica,sans-Serif" font-size="32.00" fill="#29235c">created_at &#160;&#160;&#160;</text>
<text text-anchor="start" x="946.5" y="-530.59" font-family="Helvetica,sans-Serif" font-style="italic" font-size="32.00" fill="#29235c">timestamptz</text>
<text text-anchor="start" x="1118.95" y="-530.59" font-family="Helvetica,sans-Serif" font-size="32.00" fill="#29235c"> </text>
<text text-anchor="start" x="1127.85" y="-530.59" font-family="Helvetica,sans-Serif" font-weight="bold" font-size="32.00" fill="#29235c">(!)</text>
<polygon fill="none" stroke="#29235c" stroke-width="2" points="748.27,-508.39 748.27,-990.39 1169.27,-990.39 1169.27,-508.39 748.27,-508.39"/>
</g>
<!-- invoices&#45;&gt;customers -->
<!-- invoices&#45;&gt;customers -->
<g id="edge2" class="edge">
<title>invoices:e&#45;&gt;customers:w</title>
<path fill="none" stroke="#29235c" stroke-width="3" d="M1169.77,-839.39C1284.52,-839.39 1266.02,-989.21 1372.95,-997.99"/>
<polygon fill="#29235c" stroke="#29235c" stroke-width="3" points="1372.85,-1001.48 1382.99,-998.39 1373.13,-994.49 1372.85,-1001.48"/>
<text text-anchor="middle" x="1374.09" y="-969.59" font-family="Helvetica,sans-Serif" font-size="32.00" fill="#29235c">1</text>
<text text-anchor="middle" x="1163.55" y="-810.59" font-family="Helvetica,sans-Serif" font-size="32.00" fill="#29235c">*</text>
</g>
<!-- payments -->
<g id="payments" class="node">
<title>payments</title>
<ellipse fill="none" stroke="black" stroke-width="0" cx="311.83" cy="-257.39" rx="299.21" ry="257.27"/>
<polygon fill="#1d71b8" stroke="transparent" points="102.83,-377.39 102.83,-437.39 521.83,-437.39 521.83,-377.39 102.83,-377.39"/>
<polygon fill="none" stroke="#29235c" points="102.83,-377.39 102.83,-437.39 521.83,-437.39 521.83,-377.39 102.83,-377.39"/>
<text text-anchor="start" x="180.73" y="-398.59" font-family="Helvetica,sans-Serif" font-weight="bold" font-size="32.00" fill="#ffffff"> &#160;&#160;&#160;&#160;&#160;&#160;payments &#160;&#160;&#160;&#160;&#160;&#160;</text>
<polygon fill="#e7e2dd" stroke="transparent" points="102.83,-317.39 102.83,-377.39 521.83,-377.39 521.83,-317.39 102.83,-317.39"/>
<polygon fill="none" stroke="#29235c" points="102.83,-317.39 102.83,-377.39 521.83,-377.39 521.83,-317.39 102.83,-317.39"/>
<text text-anchor="start" x="113.83" y="-338.59" font-family="Helvetica,sans-Serif" font-weight="bold" font-size="32.00" fill="#29235c">id</text>
<text text-anchor="start" x="138.72" y="-338.59" font-family="Helvetica,sans-Serif" font-size="32.00" fill="#29235c"> &#160;&#160;&#160;</text>
<text text-anchor="start" x="450.37" y="-338.59" font-family="Helvetica,sans-Serif" font-style="italic" font-size="32.00" fill="#29235c">uuid</text>
<polygon fill="#e7e2dd" stroke="transparent" points="102.83,-257.39 102.83,-317.39 521.83,-317.39 521.83,-257.39 102.83,-257.39"/>
<polygon fill="none" stroke="#29235c" points="102.83,-257.39 102.83,-317.39 521.83,-317.39 521.83,-257.39 102.83,-257.39"/>
<text text-anchor="start" x="113.83" y="-277.59" font-family="Helvetica,sans-Serif" font-size="32.00" fill="#29235c">invoice_id &#160;&#160;&#160;</text>
<text text-anchor="start" x="411.28" y="-278.59" font-family="Helvetica,sans-Serif" font-style="italic" font-size="32.00" fill="#29235c">uuid</text>
<text text-anchor="start" x="471.74" y="-278.59" font-family="Helvetica,sans-Serif" font-size="32.00" fill="#29235c"> </text>
<text text-anchor="start" x="480.64" y="-278.59" font-family="Helvetica,sans-Serif" font-weight="bold" font-size="32.00" fill="#29235c">(!)</text>
<polygon fill="#e7e2dd" stroke="transparent" points="102.83,-197.39 102.83,-257.39 521.83,-257.39 521.83,-197.39 102.83,-197.39"/>
<polygon fill="none" stroke="#29235c" points="102.83,-197.39 102.83,-257.39 521.83,-257.39 521.83,-197.39 102.83,-197.39"/>
<text text-anchor="start" x="113.83" y="-217.59" font-family="Helvetica,sans-Serif" font-size="32.00" fill="#29235c">amount &#160;&#160;&#160;</text>
<text text-anchor="start" x="274.41" y="-218.59" font-family="Helvetica,sans-Serif" font-style="italic" font-size="32.00" fill="#29235c">numeric(12,2)</text>
<text text-anchor="start" x="471.74" y="-218.59" font-family="Helvetica,sans-Serif" font-size="32.00" fill="#29235c"> </text>
<text text-anchor="start" x="480.64" y="-218.59" font-family="Helvetica,sans-Serif" font-weight="bold" font-size="32.00" fill="#29235c">(!)</text>
<polygon fill="#e7e2dd" stroke="transparent" points="102.83,-137.39 102.83,-197.39 521.83,-197.39 521.83,-137.39 102.83,-137.39"/>
<polygon fill="none" stroke="#29235c" points="102.83,-137.39 102.83,-197.39 521.83,-197.39 521.83,-137.39 102.83,-137.39"/>
<text text-anchor="start" x="113.83" y="-157.59" font-family="Helvetica,sans-Serif" font-size="32.00" fill="#29235c">paid_at &#160;&#160;&#160;</text>
<text text-anchor="start" x="409.48" y="-158.59" font-family="Helvetica,sans-Serif" font-style="italic" font-size="32.00" fill="#29235c">date</text>
<text text-anchor="start" x="471.74" y="-158.59" font-family="Helvetica,sans-Serif" font-size="32.00" fill="#29235c"> </text>
<text text-anchor="start" x="480.64" y="-158.59" font-family="Helvetica,sans-Serif" font-weight="bold" font-size="32.00" fill="#29235c">(!)</text>
<polygon fill="#e7e2dd" stroke="transparent" points="102.83,-77.39 102.83,-137.39 521.83,-137.39 521.83,-77.39 102.83,-77.39"/>
<polygon fill="none" stroke="#29235c" points="102.83,-77.39 102.83,-137.39 521.83,-137.39 521.83,-77.39 102.83,-77.39"/>
<text text-anchor="start" x="113.46" y="-97.59" font-family="Helvetica,sans-Serif" font-size="32.00" fill="#29235c">created_at &#160;&#160;&#160;</text>
<text text-anchor="start" x="299.56" y="-98.59" font-family="Helvetica,sans-Serif" font-style="italic" font-size="32.00" fill="#29235c">timestamptz</text>
<text text-anchor="start" x="472.01" y="-98.59" font-family="Helvetica,sans-Serif" font-size="32.00" fill="#29235c"> </text>
<text text-anchor="start" x="480.91" y="-98.59" font-family="Helvetica,sans-Serif" font-weight="bold" font-size="32.00" fill="#29235c">(!)</text>
<polygon fill="none" stroke="#29235c" stroke-width="2" points="101.33,-76.39 101.33,-438.39 522.33,-438.39 522.33,-76.39 101.33,-76.39"/>
</g>
<!-- payments&#45;&gt;invoices -->
<!-- payments&#45;&gt;invoices -->
<g id="edge4" class="edge">
<title>payments:e&#45;&gt;invoices:w</title>
<path fill="none" stroke="#29235c" stroke-width="3" d="M522.83,-287.39C809.24,-287.39 467.38,-884.54 738.44,-899.12"/>
<polygon fill="#29235c" stroke="#29235c" stroke-width="3" points="738.69,-902.62 748.77,-899.39 738.87,-895.63 738.69,-902.62"/>
<text text-anchor="middle" x="739.88" y="-870.59" font-family="Helvetica,sans-Serif" font-size="32.00" fill="#29235c">1</text>
<text text-anchor="middle" x="516.61" y="-258.59" font-family="Helvetica,sans-Serif" font-size="32.00" fill="#29235c">*</text>
</g>
<!-- collection_actions -->
<g id="collection_actions" class="node">
<title>collection_actions</title>
<ellipse fill="none" stroke="black" stroke-width="0" cx="311.83" cy="-917.39" rx="311.67" ry="384.83"/>
<polygon fill="#1d71b8" stroke="transparent" points="93.83,-1127.39 93.83,-1187.39 530.83,-1187.39 530.83,-1127.39 93.83,-1127.39"/>
<polygon fill="none" stroke="#29235c" points="93.83,-1127.39 93.83,-1187.39 530.83,-1187.39 530.83,-1127.39 93.83,-1127.39"/>
<text text-anchor="start" x="123.83" y="-1148.59" font-family="Helvetica,sans-Serif" font-weight="bold" font-size="32.00" fill="#ffffff"> &#160;&#160;&#160;&#160;&#160;&#160;collection_actions &#160;&#160;&#160;&#160;&#160;&#160;</text>
<polygon fill="#e7e2dd" stroke="transparent" points="93.83,-1067.39 93.83,-1127.39 530.83,-1127.39 530.83,-1067.39 93.83,-1067.39"/>
<polygon fill="none" stroke="#29235c" points="93.83,-1067.39 93.83,-1127.39 530.83,-1127.39 530.83,-1067.39 93.83,-1067.39"/>
<text text-anchor="start" x="104.83" y="-1088.59" font-family="Helvetica,sans-Serif" font-weight="bold" font-size="32.00" fill="#29235c">id</text>
<text text-anchor="start" x="129.72" y="-1088.59" font-family="Helvetica,sans-Serif" font-size="32.00" fill="#29235c"> &#160;&#160;&#160;</text>
<text text-anchor="start" x="459.37" y="-1088.59" font-family="Helvetica,sans-Serif" font-style="italic" font-size="32.00" fill="#29235c">uuid</text>
<polygon fill="#e7e2dd" stroke="transparent" points="93.83,-1007.39 93.83,-1067.39 530.83,-1067.39 530.83,-1007.39 93.83,-1007.39"/>
<polygon fill="none" stroke="#29235c" points="93.83,-1007.39 93.83,-1067.39 530.83,-1067.39 530.83,-1007.39 93.83,-1007.39"/>
<text text-anchor="start" x="104.83" y="-1027.59" font-family="Helvetica,sans-Serif" font-size="32.00" fill="#29235c">customer_id &#160;&#160;&#160;</text>
<text text-anchor="start" x="420.28" y="-1028.59" font-family="Helvetica,sans-Serif" font-style="italic" font-size="32.00" fill="#29235c">uuid</text>
<text text-anchor="start" x="480.74" y="-1028.59" font-family="Helvetica,sans-Serif" font-size="32.00" fill="#29235c"> </text>
<text text-anchor="start" x="489.64" y="-1028.59" font-family="Helvetica,sans-Serif" font-weight="bold" font-size="32.00" fill="#29235c">(!)</text>
<polygon fill="#e7e2dd" stroke="transparent" points="93.83,-947.39 93.83,-1007.39 530.83,-1007.39 530.83,-947.39 93.83,-947.39"/>
<polygon fill="none" stroke="#29235c" points="93.83,-947.39 93.83,-1007.39 530.83,-1007.39 530.83,-947.39 93.83,-947.39"/>
<text text-anchor="start" x="104.83" y="-967.59" font-family="Helvetica,sans-Serif" font-size="32.00" fill="#29235c">invoice_id &#160;&#160;&#160;</text>
<text text-anchor="start" x="459.37" y="-968.59" font-family="Helvetica,sans-Serif" font-style="italic" font-size="32.00" fill="#29235c">uuid</text>
<polygon fill="#e7e2dd" stroke="transparent" points="93.83,-887.39 93.83,-947.39 530.83,-947.39 530.83,-887.39 93.83,-887.39"/>
<polygon fill="none" stroke="#29235c" points="93.83,-887.39 93.83,-947.39 530.83,-947.39 530.83,-887.39 93.83,-887.39"/>
<text text-anchor="start" x="104.83" y="-907.59" font-family="Helvetica,sans-Serif" font-size="32.00" fill="#29235c">type &#160;&#160;&#160;</text>
<text text-anchor="start" x="317.19" y="-908.59" font-family="Helvetica,sans-Serif" font-style="italic" font-size="32.00" fill="#29235c">varchar(30)</text>
<text text-anchor="start" x="480.74" y="-908.59" font-family="Helvetica,sans-Serif" font-size="32.00" fill="#29235c"> </text>
<text text-anchor="start" x="489.64" y="-908.59" font-family="Helvetica,sans-Serif" font-weight="bold" font-size="32.00" fill="#29235c">(!)</text>
<polygon fill="#e7e2dd" stroke="transparent" points="93.83,-827.39 93.83,-887.39 530.83,-887.39 530.83,-827.39 93.83,-827.39"/>
<polygon fill="none" stroke="#29235c" points="93.83,-827.39 93.83,-887.39 530.83,-887.39 530.83,-827.39 93.83,-827.39"/>
<text text-anchor="start" x="104.83" y="-847.59" font-family="Helvetica,sans-Serif" font-size="32.00" fill="#29235c">notes &#160;&#160;&#160;</text>
<text text-anchor="start" x="468.26" y="-848.59" font-family="Helvetica,sans-Serif" font-style="italic" font-size="32.00" fill="#29235c">text</text>
<polygon fill="#e7e2dd" stroke="transparent" points="93.83,-767.39 93.83,-827.39 530.83,-827.39 530.83,-767.39 93.83,-767.39"/>
<polygon fill="none" stroke="#29235c" points="93.83,-767.39 93.83,-827.39 530.83,-827.39 530.83,-767.39 93.83,-767.39"/>
<text text-anchor="start" x="104.83" y="-787.59" font-family="Helvetica,sans-Serif" font-size="32.00" fill="#29235c">promised_date &#160;&#160;&#160;</text>
<text text-anchor="start" x="457.57" y="-788.59" font-family="Helvetica,sans-Serif" font-style="italic" font-size="32.00" fill="#29235c">date</text>
<polygon fill="#e7e2dd" stroke="transparent" points="93.83,-707.39 93.83,-767.39 530.83,-767.39 530.83,-707.39 93.83,-707.39"/>
<polygon fill="none" stroke="#29235c" points="93.83,-707.39 93.83,-767.39 530.83,-767.39 530.83,-707.39 93.83,-707.39"/>
<text text-anchor="start" x="104.59" y="-727.59" font-family="Helvetica,sans-Serif" font-size="32.00" fill="#29235c">promise_status &#160;&#160;&#160;</text>
<text text-anchor="start" x="356.56" y="-728.59" font-family="Helvetica,sans-Serif" font-style="italic" font-size="32.00" fill="#29235c">varchar(20)</text>
<polygon fill="#e7e2dd" stroke="transparent" points="93.83,-647.39 93.83,-707.39 530.83,-707.39 530.83,-647.39 93.83,-647.39"/>
<polygon fill="none" stroke="#29235c" points="93.83,-647.39 93.83,-707.39 530.83,-707.39 530.83,-647.39 93.83,-647.39"/>
<text text-anchor="start" x="104.83" y="-667.59" font-family="Helvetica,sans-Serif" font-size="32.00" fill="#29235c">created_at &#160;&#160;&#160;</text>
<text text-anchor="start" x="308.29" y="-668.59" font-family="Helvetica,sans-Serif" font-style="italic" font-size="32.00" fill="#29235c">timestamptz</text>
<text text-anchor="start" x="480.74" y="-668.59" font-family="Helvetica,sans-Serif" font-size="32.00" fill="#29235c"> </text>
<text text-anchor="start" x="489.64" y="-668.59" font-family="Helvetica,sans-Serif" font-weight="bold" font-size="32.00" fill="#29235c">(!)</text>
<polygon fill="none" stroke="#29235c" stroke-width="2" points="92.33,-646.39 92.33,-1188.39 531.33,-1188.39 531.33,-646.39 92.33,-646.39"/>
</g>
<!-- collection_actions&#45;&gt;customers -->
<!-- collection_actions&#45;&gt;customers -->
<g id="edge6" class="edge">
<title>collection_actions:e&#45;&gt;customers:w</title>
<path fill="none" stroke="#29235c" stroke-width="3" d="M531.83,-1037.39C595.17,-1037.39 597.98,-1086.01 659.67,-1100.39 789.14,-1130.56 1132.64,-1144.97 1257.88,-1100.39 1322.03,-1077.55 1312.48,-1006.16 1372.7,-998.97"/>
<polygon fill="#29235c" stroke="#29235c" stroke-width="3" points="1373.2,-1002.45 1382.99,-998.39 1372.8,-995.46 1373.2,-1002.45"/>
<text text-anchor="middle" x="1374.09" y="-1007.99" font-family="Helvetica,sans-Serif" font-size="32.00" fill="#29235c">1</text>
<text text-anchor="middle" x="525.61" y="-1046.99" font-family="Helvetica,sans-Serif" font-size="32.00" fill="#29235c">*</text>
</g>
<!-- collection_actions&#45;&gt;invoices -->
<!-- collection_actions&#45;&gt;invoices -->
<g id="edge8" class="edge">
<title>collection_actions:e&#45;&gt;invoices:w</title>
<path fill="none" stroke="#29235c" stroke-width="3" d="M531.83,-977.39C630.79,-977.39 645.39,-904.63 738.58,-899.65"/>
<polygon fill="#29235c" stroke="#29235c" stroke-width="3" points="738.87,-903.15 748.77,-899.39 738.69,-896.15 738.87,-903.15"/>
<text text-anchor="middle" x="757.67" y="-870.59" font-family="Helvetica,sans-Serif" font-size="32.00" fill="#29235c">1</text>
<text text-anchor="middle" x="525.61" y="-948.59" font-family="Helvetica,sans-Serif" font-size="32.00" fill="#29235c">*</text>
</g>
</g>
</svg>
